<svg width="800" height="200" viewBox="0 0 800 200" fill="none" xmlns="http://www.w3.org/2000/svg">
<g id="logo" clip-path="url(#clip0)">
<g id="text">
<path id="openWarnMap" d="M265.416 101.268C265.416 108.812 262.983 115.29 258.118 120.702C253.307 126.114 246.583 128.82 237.946 128.82C229.254 128.82 222.585 126.114 217.938 120.702C213.291 115.29 210.968 108.867 210.968 101.432C210.968 93.6693 213.428 87.1367 218.348 81.834C223.268 76.5313 229.91 73.88 238.274 73.88C246.802 73.88 253.444 76.586 258.2 81.998C263.011 87.3553 265.416 93.7787 265.416 101.268ZM253.526 101.596C253.526 95.9107 252.214 91.4827 249.59 88.312C246.966 85.1413 243.167 83.556 238.192 83.556C232.889 83.556 229.008 85.2507 226.548 88.64C224.088 91.9747 222.858 96.1567 222.858 101.186C222.858 106.051 224.061 110.261 226.466 113.814C228.871 117.367 232.889 119.144 238.52 119.144C243.713 119.144 247.513 117.531 249.918 114.306C252.323 111.026 253.526 106.789 253.526 101.596ZM314.035 108.648C314.035 114.115 312.586 118.843 309.689 122.834C306.846 126.825 302.637 128.82 297.061 128.82C291.868 128.82 288.096 126.989 285.745 123.326V137.266H292.305V145.466H270.247V137.266H275.167V98.972H269.837V91.018H285.745V98.07C286.729 95.938 288.205 94.1067 290.173 92.576C292.141 91.0453 294.82 90.28 298.209 90.28C302.91 90.28 306.71 91.8927 309.607 95.118C312.559 98.3433 314.035 102.853 314.035 108.648ZM303.047 109.714C303.047 106.106 302.227 103.373 300.587 101.514C299.002 99.6007 296.952 98.644 294.437 98.644C291.704 98.644 289.599 99.6553 288.123 101.678C286.702 103.701 285.936 106.27 285.827 109.386L285.745 110.698C285.745 113.705 286.538 116.083 288.123 117.832C289.708 119.581 291.813 120.456 294.437 120.456C296.952 120.456 299.002 119.581 300.587 117.832C302.227 116.083 303.047 113.377 303.047 109.714ZM355.469 116.356C355.195 119.636 353.583 122.533 350.631 125.048C347.679 127.563 343.551 128.82 338.249 128.82C332.727 128.82 328.163 127.262 324.555 124.146C321.001 121.03 319.225 116.383 319.225 110.206C319.225 104.521 320.837 99.792 324.063 96.02C327.343 92.1933 331.907 90.28 337.757 90.28C342.895 90.28 347.05 91.756 350.221 94.708C353.446 97.66 355.086 101.541 355.141 106.352C355.141 108.156 354.949 109.933 354.567 111.682H330.295C330.896 117.531 333.793 120.456 338.987 120.456C341.829 120.456 343.743 119.773 344.727 118.406C345.765 117.039 346.394 115.809 346.613 114.716L355.469 116.356ZM344.235 105.532C344.453 103.673 344.043 101.924 343.005 100.284C342.021 98.644 340.271 97.824 337.757 97.824C335.57 97.824 333.875 98.5347 332.673 99.956C331.47 101.377 330.705 103.236 330.377 105.532H344.235ZM406.423 128H386.005V120.046H390.925V107.172C390.925 104.001 390.379 101.733 389.285 100.366C388.247 98.9993 386.689 98.316 384.611 98.316C382.097 98.316 380.156 99.1087 378.789 100.694C377.423 102.225 376.712 104.247 376.657 106.762V120.046H381.577V128H361.159V120.046H366.079V99.054H360.749V91.018H376.657V96.676C379.117 92.412 383.081 90.28 388.547 90.28C392.046 90.28 395.08 91.3187 397.649 93.396C400.219 95.4733 401.503 98.6987 401.503 103.072V120.046H406.423V128ZM483.617 84.048H479.353L464.675 128H456.885L444.339 93.56H443.929L431.957 128H424.003L408.423 84.048H403.831V74.7H425.069V84.048H420.149L428.103 109.796H428.595L438.107 84.048H433.925V74.7H455.163V84.048H451.391L460.821 110.288H461.313L468.365 84.048H462.625V74.7H483.617V84.048ZM487.434 93.642C490.66 92.33 493.338 91.4553 495.47 91.018C497.657 90.526 500.254 90.28 503.26 90.28C507.251 90.28 510.695 91.3187 513.592 93.396C516.49 95.4733 517.938 98.6167 517.938 102.826V118.898C517.938 120.811 518.786 121.768 520.48 121.768C520.972 121.768 521.492 121.686 522.038 121.522L522.12 127.098C519.988 128.246 517.774 128.82 515.478 128.82C510.613 128.82 507.907 126.387 507.36 121.522V121.44C506.322 123.299 504.818 124.993 502.85 126.524C500.937 128.055 498.477 128.82 495.47 128.82C492.792 128.82 490.222 128.027 487.762 126.442C485.302 124.857 484.072 122.123 484.072 118.242C484.072 113.705 485.876 110.698 489.484 109.222C493.147 107.746 497.083 107.008 501.292 107.008C503.643 107.008 505.666 107.117 507.36 107.336V106.106C507.36 104.193 507.087 102.334 506.54 100.53C506.048 98.726 504.299 97.824 501.292 97.824C500.199 97.824 499.188 97.906 498.258 98.07C497.384 98.1793 496.509 98.4527 495.634 98.89L494.24 104.138L485.794 103.236L487.434 93.642ZM507.36 112.912V112.42C506.486 112.311 505.584 112.201 504.654 112.092C503.78 111.983 502.905 111.928 502.03 111.928C500.172 111.928 498.532 112.283 497.11 112.994C495.689 113.65 494.978 114.989 494.978 117.012C494.978 118.215 495.306 119.226 495.962 120.046C496.618 120.866 497.739 121.276 499.324 121.276C501.183 121.276 502.905 120.62 504.49 119.308C506.13 117.941 507.087 115.809 507.36 112.912ZM550.727 90.526C551.765 90.526 552.913 90.69 554.171 91.018C555.483 91.2913 556.767 91.8107 558.025 92.576L559.665 105.532L551.629 106.434L550.235 100.12C549.141 99.464 548.185 99.136 547.365 99.136C546.162 99.136 545.096 99.6007 544.167 100.53C543.292 101.459 542.855 102.826 542.855 104.63V120.046H549.415V128H527.357V120.046H532.277V99.054H526.947V91.018H542.035V98.07C542.636 95.938 543.593 94.1613 544.905 92.74C546.271 91.264 548.212 90.526 550.727 90.526ZM610.456 128H590.038V120.046H594.958V107.172C594.958 104.001 594.411 101.733 593.318 100.366C592.279 98.9993 590.721 98.316 588.644 98.316C586.129 98.316 584.189 99.1087 582.822 100.694C581.455 102.225 580.745 104.247 580.69 106.762V120.046H585.61V128H565.192V120.046H570.112V99.054H564.782V91.018H580.69V96.676C583.15 92.412 587.113 90.28 592.58 90.28C596.079 90.28 599.113 91.3187 601.682 93.396C604.251 95.4733 605.536 98.6987 605.536 103.072V120.046H610.456V128ZM684.319 84.048H677.759V118.652H683.499V128H662.097V118.652H666.771V98.316H666.443L652.421 123.654H647.829L632.741 97.332H632.413V118.652H637.497V128H616.423V118.652H622.163V84.048H615.603V74.7H631.347L650.289 107.746H650.617L668.411 74.7H684.319V84.048ZM693.469 93.642C696.694 92.33 699.373 91.4553 701.505 91.018C703.691 90.526 706.288 90.28 709.295 90.28C713.285 90.28 716.729 91.3187 719.627 93.396C722.524 95.4733 723.973 98.6167 723.973 102.826V118.898C723.973 120.811 724.82 121.768 726.515 121.768C727.007 121.768 727.526 121.686 728.073 121.522L728.155 127.098C726.023 128.246 723.809 128.82 721.513 128.82C716.647 128.82 713.941 126.387 713.395 121.522V121.44C712.356 123.299 710.853 124.993 708.885 126.524C706.971 128.055 704.511 128.82 701.505 128.82C698.826 128.82 696.257 128.027 693.797 126.442C691.337 124.857 690.107 122.123 690.107 118.242C690.107 113.705 691.911 110.698 695.519 109.222C699.181 107.746 703.117 107.008 707.327 107.008C709.677 107.008 711.7 107.117 713.395 107.336V106.106C713.395 104.193 713.121 102.334 712.575 100.53C712.083 98.726 710.333 97.824 707.327 97.824C706.233 97.824 705.222 97.906 704.293 98.07C703.418 98.1793 702.543 98.4527 701.669 98.89L700.275 104.138L691.829 103.236L693.469 93.642ZM713.395 112.912V112.42C712.52 112.311 711.618 112.201 710.689 112.092C709.814 111.983 708.939 111.928 708.065 111.928C706.206 111.928 704.566 112.283 703.145 112.994C701.723 113.65 701.013 114.989 701.013 117.012C701.013 118.215 701.341 119.226 701.997 120.046C702.653 120.866 703.773 121.276 705.359 121.276C707.217 121.276 708.939 120.62 710.525 119.308C712.165 117.941 713.121 115.809 713.395 112.912ZM776.031 108.648C776.031 114.115 774.583 118.843 771.685 122.834C768.843 126.825 764.633 128.82 759.057 128.82C753.864 128.82 750.092 126.989 747.741 123.326V137.266H754.301V145.466H732.243V137.266H737.163V98.972H731.833V91.018H747.741V98.07C748.725 95.938 750.201 94.1067 752.169 92.576C754.137 91.0453 756.816 90.28 760.205 90.28C764.907 90.28 768.706 91.8927 771.603 95.118C774.555 98.3433 776.031 102.853 776.031 108.648ZM765.043 109.714C765.043 106.106 764.223 103.373 762.583 101.514C760.998 99.6007 758.948 98.644 756.433 98.644C753.7 98.644 751.595 99.6553 750.119 101.678C748.698 103.701 747.933 106.27 747.823 109.386L747.741 110.698C747.741 113.705 748.534 116.083 750.119 117.832C751.705 119.581 753.809 120.456 756.433 120.456C758.948 120.456 760.998 119.581 762.583 117.832C764.223 116.083 765.043 113.377 765.043 109.714Z" fill="#DBDCDC"/>
</g>
<g id="sign">
<path id="Polygon 1" d="M100.34 36C104.189 29.3333 113.811 29.3333 117.66 36L186.942 156C190.791 162.667 185.98 171 178.282 171H39.718C32.02 171 27.2087 162.667 31.0577 156L100.34 36Z" fill="#CC1B29"/>
<path id="Polygon 2" d="M104.67 53.5C106.594 50.1667 111.406 50.1667 113.33 53.5L169.622 151C171.546 154.333 169.141 158.5 165.292 158.5H52.7083C48.8593 158.5 46.4537 154.333 48.3782 151L104.67 53.5Z" fill="#C4C4C4"/>
<circle id="Ellipse 1" cx="52" cy="113" r="8" fill="#C4C4C4"/>
<circle id="Ellipse 2" cx="55" cy="100" r="8" fill="#C4C4C4"/>
<circle id="Ellipse 3" cx="63" cy="90" r="8" fill="#C4C4C4"/>
<circle id="Ellipse 4" cx="71" cy="79" r="8" fill="#C4C4C4"/>
<circle id="Ellipse 5" cx="76" cy="66" r="8" fill="#C4C4C4"/>
<rect id="Rectangle 1" x="73" y="53.3473" width="1.5" height="6" transform="rotate(-10 73 53.3473)" fill="#C4C4C4"/>
<circle id="Ellipse 6" cx="73.75" cy="53.25" r="1.25" fill="#C4C4C4"/>
<rect id="Rectangle 2" x="81.5" y="53.5" width="1.5" height="6" transform="rotate(30 81.5 53.5)" fill="#C4C4C4"/>
<circle id="Ellipse 7" cx="82" cy="54.25" r="1.25" fill="#C4C4C4"/>
</g>
</g>
<defs>
<clipPath id="clip0">
<rect width="800" height="200" fill="white"/>
</clipPath>
</defs>
</svg>
